<svg xmlns="http://www.w3.org/2000/svg" width="112" height="112"><defs><clipPath id="a"><circle cx="56" cy="56" r="56" fill="#e4f6ff" data-name="Ellipse 9458" transform="translate(14567 2365)"/></clipPath></defs><g transform="translate(-14567 -2365)"><circle cx="56" cy="56" r="56" fill="#f0f8fe" data-name="Ellipse 9450" transform="translate(14567 2365)"/><g clip-path="url(#a)" data-name="Mask Group 20451"><g data-name="Group 45354"><path fill="#acdaff" d="m14601.001 2416.001-4.366 4.386a8.2 8.2 0 0 0-1.762-2.507l4.719-4.623c.541.945 1.068 2 1.3 2.484a2 2 0 0 1 .109.26" data-name="Path 139681"/><path fill="#fff" d="M14586.775 2413.936a1.4 1.4 0 0 1 .644-2.27 3.17 3.17 0 0 1 1.788-.256c1.14.158 3.591.412 4.59-.125 1.323-.711 2.613-.439 2.681-.642a3.5 3.5 0 0 1 1.459-.847c.159.027.334 1.07.4 1.527a.6.6 0 0 0 .164.327 9 9 0 0 1 1.088 1.608l-4.717 4.626a6.3 6.3 0 0 0-2.652-1.581 14 14 0 0 1-1.711-.512 4.1 4.1 0 0 0-1.866-.236 13 13 0 0 1-1.8.1c-.401-.002-1.312-1.2-.068-1.719" data-name="Path 139683"/><path fill="#f0f8fe" d="M14649.997 2433.08a12.6 12.6 0 0 1-.279-5.963c.479-2.675-1.489-5.96-4.8-8.47l-28.411-2.608a25.9 25.9 0 0 0-6.387 5.317c-2.352 2.546-7.094 2.971-9.038-5.078a3 3 0 0 0-.083-.277l-4.364 4.39a11.5 11.5 0 0 1 .937 3.42c.812 6.477 12.745 8.016 14.286 7.939a3.1 3.1 0 0 1 1.423.372 6.03 6.03 0 0 1 3.074 3.523c1.025 3.031 3.072 8.93 3.812 9.946 1 1.376.4 10.263.4 10.263s-4.994 2.768-1.205 2.989c.653.038 1.2.055 1.667.055 3.619 0 1.945-1.06 2.543-1.614.388-.361.058-2.135-.026-2.464-.343-1.36-1.174-4.73-.568-7.287.44-1.851-.959-8.248-2.143-13.048a28.92 28.92 0 0 0 17.555-2.736 32 32 0 0 0 3.523 5.67c.475.677 1.97 9.013 1.97 9.013s-1.442 9.314-2.9 9.473c-3.141.343-3.212 1.481-2.842 2.269a1.27 1.27 0 0 0 1.151.724 1 1 0 0 0 .139-.008l2.729.008a1.47 1.47 0 0 0 1.252-1.047l1.555-5.659s3.736-6.37 2.648-7.861-.543-11.723.341-9.757a47 47 0 0 1 1.863 5.963s2.009-4 .174-7.453Z" data-name="Path 139684"/><path fill="#d4e1f4" d="M14642.164 2458.895h-2.868a1 1 0 0 0 .139-.008Z" data-name="Path 139688"/><path fill="#acdaff" d="M14634.92 2410.819h-9.955a6.7 6.7 0 0 0-.988 1.508 5.7 5.7 0 0 1-.563.93h13.906c-.815-.858-1.569-1.714-2.4-2.438" data-name="Path 139689"/><path fill="#f0f8fe" d="M14634.916 2410.819h-9.955a6.06 6.06 0 0 1 5.132-2 7.5 7.5 0 0 1 4.823 2" data-name="Path 139690"/><path fill="#acdaff" d="M14642.337 2417.001v3.391a.61.61 0 0 1-.611.61h-5.091l2.224-6.243a12.6 12.6 0 0 0 2.85 1.923q.319.155.628.319" data-name="Path 139692"/><path fill="#f0f8fe" d="m14638.859 2414.758-2.224 6.243h-.708l-3.276-7.744h4.67c.481.506.985 1.014 1.538 1.501" data-name="Path 139693"/><path fill="#acdaff" d="m14632.652 2413.257 3.276 7.744h-7.016l3.241-7.744Z" data-name="Path 139694"/><path fill="#f0f8fe" d="m14632.153 2413.257-3.241 7.744h-.532l-3.074-7.744Z" data-name="Path 139695"/><path fill="#acdaff" d="m14625.307 2413.257 3.074 7.744h-7.83l4.411-7.744Z" data-name="Path 139696"/><path fill="#f0f8fe" d="m14624.963 2413.257-4.411 7.744h-.82a.776.776 0 0 1-.777-.775v-4.832a5 5 0 0 0 .645-.007 5.23 5.23 0 0 0 3.812-2.13Z" data-name="Path 139697"/><path fill="#acdaff" d="M14642.337 2417v3.391a.61.61 0 0 1-.611.61h-22a.776.776 0 0 1-.777-.775v-4.832a5.06 5.06 0 0 0-2.444.646v6.5a.95.95 0 0 0 .951.949h26.517a.943.943 0 0 0 .944-.942v-3.9a19 19 0 0 0-2.584-1.647Z" data-name="Path 139698"/><g fill="#162139" data-name="Group 45354"><path d="M14644.547 2446.421c.015.073.015-.074 0 0" data-name="Path 139700"/><path d="M14650.38 2427.238a8 8 0 0 0-1.965-6.1 18.2 18.2 0 0 0-6.411-5.057 15.9 15.9 0 0 1-4.72-3.843c-1.883-2.013-3.662-3.915-7.158-4.085a6.7 6.7 0 0 0-6.757 3.885 4.65 4.65 0 0 1-3.815 2.68 5 5 0 0 1-.565.005c-1.592-.081-4.508.925-9.36 6.179a3.92 3.92 0 0 1-3.744 1.318c-1.839-.478-3.311-2.644-4.145-6.1a3.3 3.3 0 0 0-.24-.673 22.5 22.5 0 0 0-2.5-4.25c-.223-1.467-.394-1.972-.955-2.065-.147-.025-.392-.065-1.227.415a3.8 3.8 0 0 0-.739.517l-.14.009a5.7 5.7 0 0 0-2.463.619 9.2 9.2 0 0 1-4.179.051 3.84 3.84 0 0 0-2.168.313 2.24 2.24 0 0 0-1.3 1.35 2 2 0 0 0 .078 1.293 1.4 1.4 0 0 0-.436 1.132 1.626 1.626 0 0 0 1.365 1.5 14 14 0 0 0 1.786-.1 3.8 3.8 0 0 1 1.643.187 15 15 0 0 0 1.8.537c.167.04 4.1 1.043 4.837 6.935.372 2.971 2.9 5.383 7.308 6.977a26 26 0 0 0 7.679 1.551 2.4 2.4 0 0 1 1.1.306 5.39 5.39 0 0 1 2.727 3.133c1.372 4.058 3.164 9.109 3.906 10.126.515.707.552 5.387.295 9.465-.281.169-.709.437-1.132.748-1.062.781-1.54 1.415-1.517 2.024h-37.377a.673.673 0 0 0 0 1.346h86.178a.673.673 0 1 0 0-1.346h-22.072a2 2 0 0 0 .069-.2l1.531-5.574a40 40 0 0 0 1.72-3.358c1.574-3.508 1.237-4.626.847-5.161-.209-.286-.507-1.746-.473-4.6a30 30 0 0 1 .184-3.117c.676 1.964 1.288 4.444 1.3 4.475a.673.673 0 0 0 1.255.142c.088-.175 2.123-4.314.193-8.021a12.2 12.2 0 0 1-.243-5.568m-11.211-11.35a12.8 12.8 0 0 0 2.243 1.4q.125.061.248.125v2.918h-4.07Zm-2.137-1.957q.49.513 1.04 1.025l-1.818 5.1-2.585-6.126Zm-10.736 0h4.844l-2.486 5.941Zm1.091 6.4h-5.679l3.348-5.879Zm5.015-5.927 2.507 5.927h-4.985Zm-2.344-4.909a6.75 6.75 0 0 1 2.662.653h-5.872a5.97 5.97 0 0 1 3.213-.653Zm-4.787 2h9.386c.375.339.738.707 1.1 1.091h-11.16a6 6 0 0 1 .677-1.091Zm-5.648 4.568h.02a5.9 5.9 0 0 0 4.088-2.129h.068l-3.644 6.4h-.429a.1.1 0 0 1-.1-.1Zm-2.443.406a5 5 0 0 1 1.1-.351v4.111a1.45 1.45 0 0 0 1.45 1.449h22a1.285 1.285 0 0 0 1.284-1.283v-2.235q.642.392 1.238.827v3.563a.27.27 0 0 1-.272.271h-26.52a.277.277 0 0 1-.277-.276Zm-24.811-.826a14 14 0 0 1-1.618-.484 5.16 5.16 0 0 0-2.262-.267 13 13 0 0 1-1.524.089.45.45 0 0 1-.144-.28c0-.024.145-.175.656-.263a.673.673 0 1 0-.228-1.327l-.108.02a.63.63 0 0 1-.016-.342c.069-.231.355-.408.582-.516a2.5 2.5 0 0 1 1.41-.2c1.681.231 3.913.384 5-.2a4.5 4.5 0 0 1 1.912-.461c.366-.023.812-.052 1.023-.415a4 4 0 0 1 .495-.318c.039.187.082.43.129.739a1.26 1.26 0 0 0 .35.7 6.3 6.3 0 0 1 .719 1.023l-3.889 3.81a6.7 6.7 0 0 0-2.487-1.308m4.446 3.612a8.7 8.7 0 0 0-.985-1.368l3.6-3.531c.244.455.5.96.767 1.5Zm40.72 37.469a1.76 1.76 0 0 0-.092 1.5h-13.316a2 2 0 0 0-.017-.427c0-.03-.008-.066-.01-.1.649-.767.158-2.81.1-3.047-.313-1.239-1.143-4.532-.565-6.965.444-1.871-.755-7.652-1.9-12.384a27 27 0 0 0 3.638.246 30.1 30.1 0 0 0 12.7-2.882 32.4 32.4 0 0 0 3.083 4.858q.131.176.195.264a83 83 0 0 1 1.849 8.647 76 76 0 0 1-.8 4.187c-.84 3.75-1.419 4.488-1.558 4.619-1.782.2-2.865.69-3.31 1.484Zm12.36-18.546a32 32 0 0 0-1.326-3.884.92.92 0 0 0-.811-.646.85.85 0 0 0-.79.516c-.567 1.073-.623 4.785-.628 5.2-.021 1.957.089 4.475.731 5.357.018.025.432.651-.983 3.808-.774 1.726-1.694 3.3-1.7 3.315a.7.7 0 0 0-.068.162l-1.551 5.652a.79.79 0 0 1-.646.563l-2.687-.007a1 1 0 0 0-.074 0 .6.6 0 0 1-.609-.335c-.15-.318-.073-.455-.048-.5.078-.139.477-.607 2.353-.812.831-.091 1.587-1.029 2.577-5.314.542-2.346.907-4.813.911-4.837-.568-3.167-1.595-8.7-2.083-9.391a18 18 0 0 0-.226-.308c-3.144-4.23-3.906-6.527-3.882-7.765a.665.665 0 0 0-.494-.664l-.027-.007a.66.66 0 0 0-.823.622 6.9 6.9 0 0 0 .52 2.521 28.67 28.67 0 0 1-16.144 2.465 215 215 0 0 0-1.379-5.246.673.673 0 0 0-.892-.447.693.693 0 0 0-.4.836c1.728 6.216 4.109 16.21 3.6 18.34-.654 2.754.235 6.278.57 7.605a5.9 5.9 0 0 1 .162 1.863 1.28 1.28 0 0 0-.282 1.108c0 .026.007.059.01.088-.2.089-.913.271-3.383.127a3.3 3.3 0 0 1-.7-.1 8.7 8.7 0 0 1 2.196-1.625.68.68 0 0 0 .348-.544c.146-2.141.538-9.245-.527-10.706-.486-.667-1.876-4.317-3.718-9.765a6.74 6.74 0 0 0-3.42-3.915 3.65 3.65 0 0 0-1.749-.437 25 25 0 0 1-7.154-1.469c-2.72-.983-6.044-2.8-6.43-5.878a12.7 12.7 0 0 0-.8-3.189l3.22-3.234c1.26 4.393 3.328 5.816 4.887 6.22a5.22 5.22 0 0 0 5.072-1.708 28.4 28.4 0 0 1 5.22-4.614v5.345a1.625 1.625 0 0 0 1.624 1.624h.1v.851a.673.673 0 0 0 1.346 0v-.851h2.221v.894a.673.673 0 0 0 1.346 0v-.894h2.221v.894a.673.673 0 1 0 1.346 0v-.894h2.221v.894a.673.673 0 1 0 1.346 0v-.894h2.222v.894a.673.673 0 1 0 1.346 0v-.894h2.221v.894a.673.673 0 0 0 1.346 0v-.894h2.221v.894a.673.673 0 1 0 1.346 0v-.894h2.221v.894a.673.673 0 0 0 1.346 0v-.894h.091a1.62 1.62 0 0 0 1.618-1.617v-2.474a14 14 0 0 1 1.754 1.876 6.72 6.72 0 0 1 1.707 5.044 13.2 13.2 0 0 0 .309 6.309 1 1 0 0 0 .039.088 7.06 7.06 0 0 1 .493 4.784Z" data-name="Path 139703"/></g></g><g data-name="Group 45355"><path fill="#162139" fill-rule="evenodd" d="M14652.9 2403.4a.55.55 0 0 1-.607-.102c-.681-.635-1.304-.896-1.853-.776a2.91 2.91 0 0 0-1.625 1.66.557.557 0 0 1-1.058-.335 2.16 2.16 0 0 0-.255-1.993 2.9 2.9 0 0 0-2.25-.574.557.557 0 0 1-.152-1.104 4.05 4.05 0 0 1 3.223.926 2.4 2.4 0 0 1 .566 1.061 2.8 2.8 0 0 1 1.309-.724 3.17 3.17 0 0 1 2.855 1.048.557.557 0 0 1-.152.916Z" data-name="Path 139717"/></g><g data-name="_1933420395568"><g data-name="Group 45355"><g data-name="_395648608"><path fill="#162139" fill-rule="evenodd" stroke="#f0f8fe" stroke-width=".200028" d="M14649.357 2393.227a.69.69 0 0 1-.75-.127c-.844-.785-1.615-1.109-2.291-.962a3.6 3.6 0 0 0-2.014 2.06.69.69 0 0 1-1.31-.416 2.67 2.67 0 0 0-.315-2.466 3.6 3.6 0 0 0-2.782-.714.69.69 0 0 1-.192-1.364c.104-.014 2.628-.345 3.99 1.146a3 3 0 0 1 .695 1.313 3.5 3.5 0 0 1 1.62-.898 3.93 3.93 0 0 1 3.535 1.298.69.69 0 0 1-.19 1.133Z" data-name="Path 139717"/></g></g></g><g data-name="Group 45356"><g data-name="Group 45357"><g data-name="Group 45356"><path fill="#162139" stroke="#162139" stroke-width=".50007" d="M14618.194 2385.27a.364.364 0 0 0-.5-.131l-1.773 1.028a.364.364 0 0 0 .366.623l1.775-1.022a.364.364 0 0 0 .132-.498Z" data-name="Path 139718"/></g></g><g data-name="Group 45359"><g data-name="Group 45358"><path fill="#162139" stroke="#162139" stroke-width=".50007" d="m14618.066 2394.769-1.776-1.027a.364.364 0 0 0-.365.63l1.776 1.021a.364.364 0 0 0 .365-.63Z" data-name="Path 139719"/></g></g><g data-name="Group 45361"><g data-name="Group 45360"><path fill="#162139" stroke="#162139" stroke-width=".50007" d="M14609.574 2397.456a.366.366 0 0 0-.392.393v2.05a.366.366 0 0 0 .73.057.4.4 0 0 0 0-.054v-2.053a.366.366 0 0 0-.338-.393Z" data-name="Path 139720"/></g></g><g data-name="Group 45363"><g data-name="Group 45362"><path fill="#162139" stroke="#162139" stroke-width=".50007" d="m14603.16 2386.172-1.776-1.026a.364.364 0 0 0-.365.63l1.776 1.02a.364.364 0 0 0 .365-.629Z" data-name="Path 139721"/></g></g><g data-name="Group 45365"><g data-name="Group 45364"><path fill="#162139" stroke="#162139" stroke-width=".50007" d="M14609.567 2380.25a.366.366 0 0 0-.393.339.4.4 0 0 0 0 .054v2.05a.365.365 0 0 0 .73 0l-.001-2.05a.366.366 0 0 0-.336-.393Z" data-name="Path 139722"/></g></g><g data-name="Group 45367"><g data-name="Group 45366"><path fill="#162139" stroke="#162139" stroke-width=".50007" d="m14606.062 2383.527-1.023-1.775a.364.364 0 0 0-.63.365l1.027 1.776a.364.364 0 1 0 .626-.366Z" data-name="Path 139723"/></g></g><g data-name="Group 45371"><g data-name="Group 45370"><path fill="#162139" stroke="#162139" stroke-width=".50007" d="M14619.509 2390.239a.366.366 0 0 0-.339-.34l-2.05.002a.366.366 0 1 0-.054.73.4.4 0 0 0 .054 0l2.05-.001a.365.365 0 0 0 .339-.391Z" data-name="Path 139725"/></g></g><g data-name="Group 45373"><g data-name="Group 45372"><path fill="#162139" stroke="#162139" stroke-width=".50007" d="M14602.019 2389.91a.4.4 0 0 0-.054 0h-2.05a.366.366 0 0 0 0 .73l2.05-.001a.366.366 0 0 0 .054-.73Z" data-name="Path 139726"/></g></g><g data-name="Group 45375"><g data-name="Group 45374"><path fill="#162139" stroke="#162139" stroke-width=".50007" d="M14609.542 2384.905a5.366 5.366 0 1 0 5.367 5.365 5.366 5.366 0 0 0-5.367-5.365Zm3.28 8.649a4.639 4.639 0 0 1-6.56-6.56v.006a4.637 4.637 0 0 1 6.56 6.554Z" data-name="Path 139727"/></g></g><g data-name="Group 45377"><g data-name="Group 45376"><path fill="#162139" stroke="#162139" stroke-width=".50007" d="m14614.676 2398.426-1.028-1.777a.364.364 0 0 0-.63.365l1.029 1.776a.364.364 0 0 0 .63-.364Z" data-name="Path 139728"/></g></g><g data-name="Group 45379"><g data-name="Group 45378"><path fill="#162139" stroke="#162139" stroke-width=".50007" d="M14614.548 2381.616a.364.364 0 0 0-.5.132l-1.023 1.775a.363.363 0 0 0 .13.5.364.364 0 0 0 .5-.13l1.024-1.78a.364.364 0 0 0-.131-.497Z" data-name="Path 139729"/></g></g><g data-name="Group 45381"><g data-name="Group 45380"><path fill="#162139" stroke="#162139" stroke-width=".50007" d="M14605.94 2396.52a.364.364 0 0 0-.5.133l-1.023 1.776a.364.364 0 0 0 .63.365l1.02-1.776a.364.364 0 0 0-.126-.497Z" data-name="Path 139730"/></g></g><g data-name="Group 45383"><g data-name="Group 45382"><path fill="#162139" stroke="#162139" stroke-width=".50007" d="M14603.296 2393.878a.364.364 0 0 0-.5-.131l-1.773 1.028a.364.364 0 1 0 .365.623l1.776-1.022a.364.364 0 0 0 .132-.498Z" data-name="Path 139731"/></g></g></g></g></g></svg>